<svg id="Layer_1" data-name="Layer 1" xmlns="http://www.w3.org/2000/svg" viewBox="0 0 118.27 12.78"><defs><style>.cls-1{fill:#231f20;}</style></defs><title>logo_title</title><path class="cls-1" d="M240.1,308.21h2.36v12.52H240.1Zm1.08,5.39h4a1.38,1.38,0,0,0,.74-.19,1.29,1.29,0,0,0,.51-.55,1.94,1.94,0,0,0,0-1.63,1.21,1.21,0,0,0-.5-.55,1.4,1.4,0,0,0-.75-.2h-4v-2.27h3.94a4.26,4.26,0,0,1,2.06.48,3.33,3.33,0,0,1,1.38,1.35,4.29,4.29,0,0,1,0,4,3.3,3.3,0,0,1-1.38,1.34,4.26,4.26,0,0,1-2.06.47h-3.94Z" transform="translate(-240.1 -308.08)"/><path class="cls-1" d="M250.91,308.21h2.36v12.52h-2.36Zm1.09,5.18h7.29v2.27H252Zm5.76-5.18h2.36v12.52h-2.36Z" transform="translate(-240.1 -308.08)"/><path class="cls-1" d="M264.79,320.29a4,4,0,0,1-1.61-1.62,5.13,5.13,0,0,1-.56-2.43V312.7a5.13,5.13,0,0,1,.56-2.43,4,4,0,0,1,1.61-1.62,5.34,5.34,0,0,1,4.8,0,4,4,0,0,1,1.6,1.62,5,5,0,0,1,.57,2.43v3.54a5,5,0,0,1-.57,2.43,4,4,0,0,1-1.6,1.62,5.34,5.34,0,0,1-4.8,0Zm3.52-2.06a1.83,1.83,0,0,0,.74-.77,2.39,2.39,0,0,0,.27-1.16v-3.66a2.39,2.39,0,0,0-.27-1.16,1.83,1.83,0,0,0-.74-.77,2.26,2.26,0,0,0-1.12-.27,2.24,2.24,0,0,0-1.12.27,1.92,1.92,0,0,0-.75.77,2.51,2.51,0,0,0-.26,1.16v3.66a2.51,2.51,0,0,0,.26,1.16,1.92,1.92,0,0,0,.75.77,2.24,2.24,0,0,0,1.12.27A2.26,2.26,0,0,0,268.31,318.23Z" transform="translate(-240.1 -308.08)"/><path class="cls-1" d="M272.54,308.21h9.17v2.27h-9.17Zm3.41,1h2.36v11.5H276Z" transform="translate(-240.1 -308.08)"/><path class="cls-1" d="M284.66,320.29a4,4,0,0,1-1.6-1.62,5,5,0,0,1-.57-2.43V312.7a5,5,0,0,1,.57-2.43,4,4,0,0,1,1.6-1.62,5,5,0,0,1,2.4-.57,4.89,4.89,0,0,1,2.4.57,4,4,0,0,1,1.61,1.62,5.13,5.13,0,0,1,.56,2.43v3.54a5.13,5.13,0,0,1-.56,2.43,4,4,0,0,1-1.61,1.62,4.89,4.89,0,0,1-2.4.57A5,5,0,0,1,284.66,320.29Zm3.52-2.06a1.92,1.92,0,0,0,.75-.77,2.51,2.51,0,0,0,.26-1.16v-3.66a2.51,2.51,0,0,0-.26-1.16,1.92,1.92,0,0,0-.75-.77,2.24,2.24,0,0,0-1.12-.27,2.26,2.26,0,0,0-1.12.27,1.83,1.83,0,0,0-.74.77,2.39,2.39,0,0,0-.26,1.16v3.66a2.39,2.39,0,0,0,.26,1.16,1.83,1.83,0,0,0,.74.77,2.26,2.26,0,0,0,1.12.27A2.24,2.24,0,0,0,288.18,318.23Z" transform="translate(-240.1 -308.08)"/><path class="cls-1" d="M301.72,320.86l-.8-.21a4.71,4.71,0,0,1-1.42-.64,4.38,4.38,0,0,1-1.09-1.1l1-.79a3.57,3.57,0,0,0,1.4,1.2,4.44,4.44,0,0,0,1.89.39,3.62,3.62,0,0,0,2.26-.61,2,2,0,0,0,.79-1.7v-.15a1.69,1.69,0,0,0-.36-1.12,2.45,2.45,0,0,0-.93-.66A10.51,10.51,0,0,0,303,315l0,0h-.06l-.25-.06a15.13,15.13,0,0,1-1.94-.56,3,3,0,0,1-1.25-.92,2.68,2.68,0,0,1-.51-1.73v-.13a3.59,3.59,0,0,1,.48-1.91,3.1,3.1,0,0,1,1.42-1.19,5.92,5.92,0,0,1,3.68-.23,4.28,4.28,0,0,1,1.22.58,4.58,4.58,0,0,1,1,1l-.94.76a4,4,0,0,0-1.26-1,3.3,3.3,0,0,0-1.47-.33,3.44,3.44,0,0,0-2.17.6,2,2,0,0,0-.77,1.71v.12a1.49,1.49,0,0,0,.4,1.1,2.51,2.51,0,0,0,1,.63c.4.14.94.29,1.61.45l.07,0,.07,0,.1,0,.09,0a10.62,10.62,0,0,1,1.8.58,3.19,3.19,0,0,1,1.21,1,2.8,2.8,0,0,1,.48,1.71v.16a3.53,3.53,0,0,1-.5,1.91,3.1,3.1,0,0,1-1.46,1.19,6,6,0,0,1-2.32.4Z" transform="translate(-240.1 -308.08)"/><path class="cls-1" d="M309.08,308.21h1.24v12.52h-1.24Zm.91,6.51h3.73a2.26,2.26,0,0,0,1.17-.3,2,2,0,0,0,.77-.85,2.83,2.83,0,0,0,.28-1.27v-.49a2.92,2.92,0,0,0-.28-1.29,2,2,0,0,0-.77-.85,2.27,2.27,0,0,0-1.17-.31H310v-1.15h3.67a3.8,3.8,0,0,1,1.85.44,3.11,3.11,0,0,1,1.23,1.26,4,4,0,0,1,.44,1.9v.49a3.94,3.94,0,0,1-.44,1.89,3.08,3.08,0,0,1-1.23,1.25,3.8,3.8,0,0,1-1.85.43H310Z" transform="translate(-240.1 -308.08)"/><path class="cls-1" d="M319.23,308.21h1.24v12.52h-1.24Zm.89,5.74h6.74v1.19h-6.74Zm6.12-5.74h1.24v12.52h-1.24Z" transform="translate(-240.1 -308.08)"/><path class="cls-1" d="M330.31,308.21h1.24v12.52h-1.24Zm.85,0h6.66v1.15h-6.66Zm0,5.73H337v1.15h-5.81Zm0,5.64h6.66v1.15h-6.66Z" transform="translate(-240.1 -308.08)"/><path class="cls-1" d="M340.07,308.2h1.24v12.53h-1.24Zm.77,6.08h3.87a2.27,2.27,0,0,0,1.18-.29,1.91,1.91,0,0,0,.78-.81,2.77,2.77,0,0,0,.27-1.22v-.26a2.79,2.79,0,0,0-.26-1.23,2,2,0,0,0-.78-.83,2.38,2.38,0,0,0-1.19-.28h-3.87V308.2h3.81a3.81,3.81,0,0,1,1.86.43,3,3,0,0,1,1.23,1.21,3.68,3.68,0,0,1,.43,1.82v.3a3.75,3.75,0,0,1-.43,1.83A2.92,2.92,0,0,1,346.5,315a3.92,3.92,0,0,1-1.85.43h-3.81Zm3.73.77,1.13-.4,3,6.08h-1.47Z" transform="translate(-240.1 -308.08)"/><path class="cls-1" d="M350.86,308.21h1.24v12.52h-1.24Zm.85,0h6.66v1.15h-6.66Zm0,5.73h5.82v1.15h-5.82Zm0,5.64h6.66v1.15h-6.66Z" transform="translate(-240.1 -308.08)"/></svg>