<?xml version="1.0" encoding="utf-8"?>
<!-- Generator: Adobe Illustrator 23.0.5, SVG Export Plug-In . SVG Version: 6.00 Build 0)  -->
<svg version="1.1" id="Layer_1" xmlns="http://www.w3.org/2000/svg" xmlns:xlink="http://www.w3.org/1999/xlink" x="0px" y="0px"
	 viewBox="0 0 148.6 23.8" style="enable-background:new 0 0 148.6 23.8;" xml:space="preserve">
<style type="text/css">
	.st0{fill:#010101;}
	.st1{fill:#231F20;}
</style>
<path class="st0" d="M14.6,0.3L14.6,0.3L14.6,0.3C13.7,0.1,12.8,0,11.9,0C5.3,0,0,5.3,0,11.9s5.3,11.9,11.9,11.9S23.8,18.5,23.8,12
	C23.8,6.3,19.9,1.6,14.6,0.3z M20.7,8.4h-9.5l3.2-5.6C17.3,3.6,19.6,5.7,20.7,8.4z M13.2,2.5L9.8,8.4l-1.4,2.4L5.2,5.2
	c1.7-1.7,4.1-2.7,6.7-2.7C12.4,2.4,12.8,2.5,13.2,2.5z M4.4,6.1L7.8,12l1.4,2.4H2.7c-0.2-0.8-0.3-1.6-0.3-2.4
	C2.4,9.8,3.1,7.7,4.4,6.1z M3.1,15.5h9.5l-3.2,5.6C6.5,20.3,4.2,18.2,3.1,15.5z M10.6,21.4l4.8-8.2l3.2,5.6
	c-1.7,1.7-4.1,2.7-6.7,2.7C11.5,21.5,11,21.4,10.6,21.4z M19.4,17.8l-4.8-8.2h6.5c0.2,0.8,0.3,1.6,0.3,2.4
	C21.4,14.2,20.7,16.2,19.4,17.8z"/>
<path class="st1" d="M31.2,5.1h2.4v12.5h-2.4V5.1z M32.3,10.5h4c0.3,0,0.5-0.1,0.7-0.2s0.4-0.3,0.5-0.5c0.2-0.5,0.2-1.1,0-1.6
	C37.4,8,37.2,7.8,37,7.7s-0.5-0.2-0.8-0.2h-4V5.2h3.9c0.7,0,1.4,0.1,2.1,0.5c0.6,0.3,1.1,0.8,1.4,1.4c0.7,1.3,0.7,2.7,0,4
	c-0.3,0.6-0.8,1-1.4,1.3s-1.3,0.5-2.1,0.5h-3.9v-2.4H32.3z"/>
<path class="st1" d="M42,5.1h2.4v12.5H42V5.1z M43.1,10.3h7.3v2.3h-7.3V10.3z M48.8,5.1h2.4v12.5h-2.4V5.1z"/>
<path class="st1" d="M55.9,17.2c-0.7-0.4-1.2-0.9-1.6-1.6c-0.4-0.8-0.6-1.6-0.6-2.4V9.7c0-0.8,0.2-1.7,0.6-2.4
	c0.4-0.7,0.9-1.2,1.6-1.6c1.5-0.8,3.3-0.8,4.8,0c0.7,0.4,1.2,0.9,1.6,1.6c0.4,0.7,0.6,1.6,0.6,2.4v3.5c0,0.8-0.2,1.7-0.6,2.4
	c-0.4,0.7-0.9,1.2-1.6,1.6C59.2,18,57.4,18,55.9,17.2z M59.4,15.1c0.3-0.2,0.6-0.4,0.7-0.8c0.2-0.4,0.3-0.8,0.3-1.2V9.4
	c0-0.4-0.1-0.8-0.3-1.2c-0.2-0.3-0.4-0.6-0.7-0.8c-0.3-0.2-0.7-0.3-1.1-0.3s-0.8,0.1-1.1,0.3c-0.3,0.2-0.6,0.4-0.8,0.8
	c-0.2,0.4-0.3,0.8-0.3,1.2v3.7c0,0.4,0.1,0.8,0.3,1.2c0.2,0.3,0.4,0.6,0.8,0.8c0.3,0.2,0.7,0.3,1.1,0.3
	C58.7,15.4,59.1,15.3,59.4,15.1z"/>
<path class="st1" d="M63.6,5.1h9.2v2.3h-9.2V5.1z M67,6.1h2.4v11.5h-2.3L67,6.1z"/>
<path class="st1" d="M75.7,17.2c-0.7-0.4-1.2-0.9-1.6-1.6c-0.4-0.7-0.6-1.6-0.6-2.4V9.7c0-0.8,0.2-1.7,0.6-2.4
	c0.4-0.7,0.9-1.2,1.6-1.6c0.7-0.4,1.6-0.6,2.4-0.6c0.8,0,1.7,0.2,2.4,0.6s1.2,0.9,1.6,1.6c0.4,0.8,0.6,1.6,0.6,2.4v3.5
	c0,0.8-0.2,1.7-0.6,2.4c-0.4,0.7-0.9,1.2-1.6,1.6c-0.7,0.4-1.6,0.6-2.4,0.6S76.5,17.6,75.7,17.2z M79.3,15.1
	c0.3-0.2,0.6-0.4,0.8-0.8s0.3-0.8,0.3-1.2V9.4c0-0.4-0.1-0.8-0.3-1.2c-0.2-0.3-0.4-0.6-0.8-0.8c-0.3-0.2-0.7-0.3-1.1-0.3
	c-0.4,0-0.8,0.1-1.1,0.3c-0.3,0.2-0.6,0.4-0.7,0.8c-0.2,0.4-0.3,0.8-0.3,1.2v3.7c0,0.4,0.1,0.8,0.3,1.2c0.2,0.3,0.4,0.6,0.7,0.8
	c0.3,0.2,0.7,0.3,1.1,0.3C78.5,15.4,78.9,15.3,79.3,15.1z"/>
<path class="st1" d="M92.8,17.8L92,17.6c-0.5-0.1-1-0.3-1.4-0.6c-0.4-0.3-0.8-0.7-1.1-1.1l1-0.8c0.4,0.5,0.8,0.9,1.4,1.2
	c0.6,0.3,1.2,0.4,1.9,0.4c0.8,0.1,1.6-0.2,2.3-0.6c0.5-0.4,0.8-1,0.8-1.7v-0.1c0-0.4-0.1-0.8-0.4-1.1c-0.3-0.3-0.6-0.5-0.9-0.7
	c-0.5-0.2-1-0.3-1.5-0.5l0,0H94l-0.3-0.1c-0.7-0.1-1.3-0.3-1.9-0.6c-0.5-0.2-0.9-0.5-1.3-0.9C90.1,9.9,90,9.3,90,8.7V8.6
	c0-0.7,0.1-1.3,0.5-1.9c0.3-0.5,0.8-0.9,1.4-1.2C93.1,5,94.4,5,95.6,5.3c0.4,0.1,0.8,0.3,1.2,0.6c0.4,0.3,0.7,0.6,1,1l-0.9,0.8
	c-0.3-0.4-0.8-0.8-1.3-1s-1-0.3-1.5-0.3c-0.8,0-1.5,0.2-2.2,0.6c-0.5,0.4-0.8,1-0.8,1.7v0.1c0,0.4,0.1,0.8,0.4,1.1
	c0.3,0.3,0.6,0.5,1,0.6s0.9,0.3,1.6,0.5h0.1h0.1h0.1h0.1c0.6,0.1,1.2,0.3,1.8,0.6c0.5,0.2,0.9,0.6,1.2,1c0.3,0.5,0.5,1.1,0.5,1.7
	v0.2c0,0.7-0.2,1.3-0.5,1.9c-0.4,0.5-0.9,1-1.5,1.2c-0.7,0.3-1.5,0.4-2.3,0.4L92.8,17.8z"/>
<path class="st1" d="M100.2,5.1h1.2v12.5h-1.2V5.1z M101.1,11.6h3.7c0.4,0,0.8-0.1,1.2-0.3c0.3-0.2,0.6-0.5,0.8-0.9s0.3-0.8,0.3-1.3
	V8.7c0-0.4-0.1-0.9-0.3-1.3s-0.4-0.6-0.8-0.9c-0.4-0.2-0.8-0.3-1.2-0.3h-3.7V5.1h3.7c0.6,0,1.3,0.1,1.9,0.4c0.5,0.3,0.9,0.7,1.2,1.3
	c0.3,0.6,0.5,1.2,0.4,1.9v0.5c0,0.7-0.1,1.3-0.4,1.9c-0.3,0.5-0.7,1-1.2,1.3c-0.6,0.3-1.2,0.4-1.9,0.4h-3.7V11.6z"/>
<path class="st1" d="M110.3,5.1h1.2v12.5h-1.2V5.1z M111.2,10.9h6.7v1.2h-6.7V10.9z M117.3,5.1h1.2v12.5h-1.2V5.1z"/>
<path class="st1" d="M121.4,5.1h1.2v12.5h-1.2V5.1z M122.2,5.1h6.7v1.1h-6.7V5.1z M122.2,10.8h5.8v1.1h-5.8V10.8z M122.2,16.5h6.7
	v1.1h-6.7V16.5z"/>
<path class="st1" d="M131.2,5.1h1.2v12.5h-1.2V5.1z M131.9,11.2h3.9c0.4,0,0.8-0.1,1.2-0.3c0.3-0.2,0.6-0.5,0.8-0.8
	c0.2-0.4,0.3-0.8,0.3-1.2V8.6c0-0.4-0.1-0.8-0.3-1.2c-0.2-0.3-0.4-0.6-0.8-0.8c-0.4-0.2-0.8-0.3-1.2-0.3h-3.9V5.1h3.8
	c0.6,0,1.3,0.1,1.9,0.4c0.5,0.3,0.9,0.7,1.2,1.2c0.3,0.6,0.4,1.2,0.4,1.8v0.3c0,0.6-0.1,1.3-0.4,1.8s-0.7,0.9-1.2,1.2
	c-0.6,0.3-1.2,0.4-1.9,0.4h-3.8V11.2z M135.7,12l1.1-0.4l3,6.1h-1.5L135.7,12z"/>
<path class="st1" d="M141.9,5.1h1.2v12.5h-1.2V5.1z M142.8,5.1h6.7v1.1h-6.7V5.1z M142.8,10.8h5.8v1.1h-5.8V10.8z M142.8,16.5h6.7
	v1.1h-6.7V16.5z"/>
</svg>
